<?xml version="1.0" encoding="UTF-8"?> <svg xmlns="http://www.w3.org/2000/svg" width="182.197" height="42" viewBox="0 0 182.197 42"><g transform="translate(-13818 3654)"><path d="M308.3,260.581a13.632,13.632,0,0,1-9.635,4.393,12.647,12.647,0,0,1,0-25.294,13.208,13.208,0,0,1,9.245,4.039l-3.435,3.472a8.329,8.329,0,0,0-5.81-2.586,7.724,7.724,0,0,0,0,15.448,8.584,8.584,0,0,0,6.163-2.9Z" transform="translate(13592.566 -3889.092)" fill="#fefeff"></path><path d="M403.225,265.418H388.31v-24.8h4.923v19.875h9.991Z" transform="translate(13517.286 -3889.784)" fill="#fefeff"></path><path d="M453.27,252.363a12.646,12.646,0,1,1,12.646,12.611,12.705,12.705,0,0,1-12.646-12.611m4.923,0a7.706,7.706,0,1,0,7.722-7.759,7.734,7.734,0,0,0-7.722,7.759" transform="translate(13469.465 -3889.092)" fill="#fefeff"></path><path d="M568.55,255.994V240.62h4.889v14.738c0,3.33,2.232,5.385,4.712,5.385s4.712-2.055,4.712-5.385V240.62h4.923v15.374a9.618,9.618,0,1,1-19.236,0" transform="translate(13384.6 -3889.784)" fill="#fefeff"></path><path d="M668.72,265.418v-24.8h8.609c7.332,0,12.01,5.1,12.01,12.435,0,6.944-4.675,12.363-12.01,12.363Zm4.889-4.923h3.72a7.467,7.467,0,0,0,0-14.915h-3.72Z" transform="translate(13310.858 -3889.784)" fill="#fefeff"></path><path d="M307.68,351.583a2.273,2.273,0,0,1-1.607.733,2.108,2.108,0,0,1,0-4.216,2.205,2.205,0,0,1,1.541.673l-.573.578a1.387,1.387,0,0,0-.968-.43,1.288,1.288,0,0,0,0,2.575,1.421,1.421,0,0,0,1.026-.485Z" transform="translate(13579.374 -3968.907)" fill="#fefeff"></path><path d="M325.88,350.213a2.108,2.108,0,1,1,2.108,2.1,2.116,2.116,0,0,1-2.108-2.1m.821,0a1.285,1.285,0,1,0,1.287-1.293,1.29,1.29,0,0,0-1.287,1.293" transform="translate(13563.245 -3968.907)" fill="#fefeff"></path><path d="M355.867,348.1v4.174h-.815V349.6l-1.488,1.477-1.483-1.477v2.67h-.821V348.1h.454l1.849,1.836,1.855-1.836Z" transform="translate(13544.562 -3968.907)" fill="#fefeff"></path><path d="M380.071,352.384h-.821V348.25h1.67a1.278,1.278,0,0,1,0,2.557h-.85Zm0-2.39h.7c.414,0,.609-.214.609-.467s-.2-.454-.609-.454h-.7Z" transform="translate(13523.955 -3969.017)" fill="#fefeff"></path><path d="M399.19,350.822V348.26h.815v2.456a.793.793,0,1,0,1.572,0V348.26h.821v2.562a1.6,1.6,0,1,1-3.208,0" transform="translate(13509.276 -3969.025)" fill="#fefeff"></path><path d="M423.35,349.073h-1.134v3.311H421.4v-3.311H420.25v-.823h3.1Z" transform="translate(13493.772 -3969.017)" fill="#fefeff"></path><rect width="0.815" height="4.134" transform="translate(13919.495 -3620.767)" fill="#fefeff"></rect><path d="M454.15,348.1h.359l2.232,2.48v-2.44h.815v4.177h-.367l-2.224-2.475v2.433h-.815Z" transform="translate(13468.816 -3968.907)" fill="#fefeff"></path><path d="M478.347,349.936h1.617v1.76a2.181,2.181,0,0,1-1.5.62,2.108,2.108,0,0,1,0-4.216,2.187,2.187,0,0,1,1.536.667l-.562.591a1.449,1.449,0,0,0-.974-.438,1.288,1.288,0,0,0,0,2.575,1.382,1.382,0,0,0,.686-.19v-.549h-.8Z" transform="translate(13452.467 -3968.907)" fill="#fefeff"></path><path d="M513.55,351.583a2.273,2.273,0,0,1-1.607.733,2.108,2.108,0,0,1,0-4.216,2.205,2.205,0,0,1,1.541.673l-.572.578a1.388,1.388,0,0,0-.968-.43,1.288,1.288,0,0,0,0,2.575,1.421,1.421,0,0,0,1.026-.485Z" transform="translate(13427.819 -3968.907)" fill="#fefeff"></path><path d="M531.75,350.213a2.108,2.108,0,1,1,2.108,2.1,2.116,2.116,0,0,1-2.108-2.1m.82,0a1.285,1.285,0,1,0,1.288-1.293,1.29,1.29,0,0,0-1.288,1.293" transform="translate(13411.69 -3968.907)" fill="#fefeff"></path><path d="M557.08,348.1h.361l2.232,2.48v-2.44h.815v4.177h-.367l-2.227-2.475v2.433h-.815Z" transform="translate(13393.044 -3968.907)" fill="#fefeff"></path><path d="M579.349,352.006h.005a2.14,2.14,0,0,1-.454-.39l.615-.567a1.373,1.373,0,0,0,.839.43c.266,0,.573-.113.573-.438,0-.129-.148-.3-.72-.52-.668-.248-1.158-.567-1.158-1.235a1.219,1.219,0,0,1,1.322-1.206,2.267,2.267,0,0,1,1.264.472l-.506.639a1.427,1.427,0,0,0-.726-.29c-.325,0-.525.135-.525.377,0,.224.29.348.62.467.95.354,1.259.726,1.259,1.3a1.305,1.305,0,0,1-1.4,1.251,1.8,1.8,0,0,1-1.008-.288" transform="translate(13376.98 -3968.892)" fill="#fefeff"></path><path d="M598.77,350.822V348.26h.815v2.456a.793.793,0,1,0,1.572,0V348.26h.821v2.562a1.6,1.6,0,1,1-3.208,0" transform="translate(13362.354 -3969.025)" fill="#fefeff"></path><path d="M623.5,352.384H621.01V348.25h.82v3.314H623.5Z" transform="translate(13345.98 -3969.017)" fill="#fefeff"></path><path d="M638.43,349.073H637.3v3.311h-.82v-3.311H635.33v-.823h3.1Z" transform="translate(13335.439 -3969.017)" fill="#fefeff"></path><path d="M655.1,348.1l1.86,4.174h-.9l-.338-.757h-1.578c-.1.237-.237.53-.33.757h-.9l1.836-4.174Zm.256,2.6-.425-.958-.425.958Z" transform="translate(13322.489 -3968.907)" fill="#fefeff"></path><path d="M676.69,348.1h.359l2.232,2.48v-2.44h.815v4.177h-.367l-2.224-2.475v2.433h-.815Z" transform="translate(13304.99 -3968.907)" fill="#fefeff"></path><path d="M701.87,349.073h-1.132v3.311h-.823v-3.311H698.77v-.823h3.1Z" transform="translate(13288.736 -3969.017)" fill="#fefeff"></path><path d="M718.579,352.006h.005a2.14,2.14,0,0,1-.454-.39l.615-.567a1.365,1.365,0,0,0,.839.43c.266,0,.573-.113.573-.438,0-.129-.148-.3-.72-.52-.667-.248-1.158-.567-1.158-1.235a1.219,1.219,0,0,1,1.322-1.206,2.267,2.267,0,0,1,1.264.472l-.507.639a1.426,1.426,0,0,0-.726-.29c-.325,0-.525.135-.525.377,0,.224.29.348.62.467.95.354,1.258.726,1.258,1.3a1.305,1.305,0,0,1-1.4,1.251,1.8,1.8,0,0,1-1.008-.288" transform="translate(13274.484 -3968.892)" fill="#fefeff"></path><path d="M70.048,304.757a13.748,13.748,0,1,1,10.3-22.856,2.983,2.983,0,1,1-4.469,3.952,7.784,7.784,0,1,0,0,10.308,2.983,2.983,0,1,1,4.469,3.952,13.753,13.753,0,0,1-10.3,4.644" transform="translate(13761.7 -3916.757)" fill="#fefeff"></path><path d="M190.658,304.757a13.748,13.748,0,1,1,10.3-22.856,2.983,2.983,0,1,1-4.469,3.952,7.783,7.783,0,1,0,0,10.308,2.983,2.983,0,1,1,4.469,3.952,13.763,13.763,0,0,1-10.3,4.644" transform="translate(13672.912 -3916.757)" fill="#fefeff"></path><path d="M130.348,249.787a13.748,13.748,0,1,1,10.3-22.856,2.983,2.983,0,1,1-4.469,3.952,7.783,7.783,0,1,0,0,10.308,2.983,2.983,0,0,1,4.469,3.952,13.772,13.772,0,0,1-10.3,4.643" transform="translate(13717.31 -3876.29)" fill="#fefeff"></path></g></svg> 